<svg xmlns="http://www.w3.org/2000/svg" viewBox="0 0 1200 1150" width="100%" height="100%">
  <defs>
    <radialGradient id="bg-gradient" cx="50%" cy="30%" r="70%" fx="50%" fy="30%">
      <stop offset="0%" stop-color="#FFFFFF" />
      <stop offset="100%" stop-color="#F3F4F6" />
    </radialGradient>

    <filter id="noise">
      <feTurbulence type="fractalNoise" baseFrequency="0.8" numOctaves="3" stitchTiles="stitch"/>
      <feColorMatrix type="matrix" values="1 0 0 0 0, 0 1 0 0 0, 0 0 1 0 0, 0 0 0 0.05 0" />
    </filter>
    
    <filter id="card-shadow" x="-10%" y="-10%" width="120%" height="120%">
      <feDropShadow dx="0" dy="12" stdDeviation="20" flood-color="#000000" flood-opacity="0.05"/>
    </filter>

    <style>
      .card { fill: #FFFFFF; stroke: #E5E7EB; stroke-width: 1.5; filter: url(#card-shadow); rx: 16; }
      .pill { fill: transparent; stroke: #D1D5DB; stroke-width: 1.5; rx: 18; }
      .pill-dark { fill: #111827; rx: 24; }
      .icon-box { fill: #F9FAFB; stroke: #E5E7EB; stroke-width: 1; rx: 12; }
      
      /* Global Monospace Typography with anti-aliasing */
      text { 
        font-family: 'SFMono-Regular', Consolas, 'Liberation Mono', Menlo, Courier, monospace; 
        text-rendering: optimizeLegibility;
      }
      .text-dark { fill: #111827; }
      .text-gray { fill: #6B7280; }
      .text-light { fill: #FFFFFF; }
      
      .font-bold { font-weight: bold; }
      .font-small { font-size: 13px; letter-spacing: 0.5px; }
      .font-medium { font-size: 16px; letter-spacing: 0.5px; }
      .font-mono-large { font-size: 48px; font-weight: bold; letter-spacing: -1.5px; }
      
      /* Vector Line Art Styling */
      .icon-path { fill: none; stroke: #111827; stroke-width: 1.5; stroke-linecap: round; stroke-linejoin: round; }
      .icon-path-gray { fill: none; stroke: #6B7280; stroke-width: 1.5; stroke-linecap: round; stroke-linejoin: round; }
    </style>
  </defs>

  <rect width="1200" height="1150" fill="url(#bg-gradient)" rx="32" />
  <rect width="1200" height="1150" filter="url(#noise)" style="pointer-events:none;" rx="32"/>

  <rect x="60" y="40" width="1080" height="60" class="card" />
  
  <text x="95" y="75" class="text-dark font-small font-bold">ISAAC_MOBE</text>
  <text x="210" y="75" class="text-gray font-small">isaacmongechi@gmail.com</text>

  <rect x="735" y="52" width="100" height="36" class="pill" />
  <text x="785" y="75" class="text-dark font-small" text-anchor="middle">NAIROBI</text>

  <rect x="850" y="52" width="145" height="36" class="pill" />
  <text x="922" y="75" class="text-dark font-small" text-anchor="middle">1ST_CLASS_BBIT</text>

  <rect x="1010" y="52" width="110" height="36" class="pill" />
  <circle cx="1030" cy="70" r="4" fill="#10B981" />
  <text x="1070" y="75" class="text-dark font-small" text-anchor="middle">ONLINE</text>

  <g transform="translate(600, 200)">
    <circle cx="0" cy="0" r="45" fill="#E5E7EB" />
    <text x="0" y="8" font-size="24" class="text-dark font-bold" text-anchor="middle">IM</text>
    
    <rect x="-75" y="28" width="150" height="32" class="card" />
    <circle cx="-55" cy="44" r="4" fill="#10B981" />
    <text x="8" y="48" class="text-dark font-small font-bold" text-anchor="middle">AVAILABLE_NOW</text>
  </g>

  <text x="600" y="340" class="text-dark font-mono-large" text-anchor="middle">BUILDING DIGITAL PRODUCTS,</text>
  <text x="600" y="400" class="text-dark font-mono-large" text-anchor="middle">BRANDS &amp; EXPERIENCES.</text>

  <rect x="490" y="450" width="220" height="48" class="pill-dark" />
  <text x="600" y="480" class="text-light font-small font-bold" text-anchor="middle">VIEW_LATEST_PROJECTS ↗</text>

  <rect x="60" y="550" width="1080" height="76" class="card" />
  
  <g transform="translate(0, 588)">
    <g transform="translate(150, 0)">
      <g transform="translate(0, -12)" class="icon-path-gray">
        <ellipse rx="9" ry="3.5" transform="rotate(30)"/>
        <ellipse rx="9" ry="3.5" transform="rotate(90)"/>
        <ellipse rx="9" ry="3.5" transform="rotate(150)"/>
        <circle r="2" fill="#6B7280"/>
      </g>
      <text y="20" class="text-gray font-medium font-bold" text-anchor="middle">REACT.JS</text>
    </g>

    <g transform="translate(330, 0)">
      <g transform="translate(0, -12)" class="icon-path-gray">
        <path d="M-6,7 L-6,-3 L2,-7 L8,-4 L8,4 L0,9 Z" />
        <path d="M-6,-3 L0,0 L8,-4 M0,0 L0,9" />
      </g>
      <text y="20" class="text-gray font-medium font-bold" text-anchor="middle">LARAVEL</text>
    </g>

    <g transform="translate(510, 0)">
      <g transform="translate(0, -12)" class="icon-path-gray">
        <path d="M-10,2 C-6,2 -6,-4 0,-4 C6,-4 6,2 10,2" />
        <path d="M-6,7 C-2,7 -2,1 4,1 C10,1 10,7 14,7" />
      </g>
      <text y="20" class="text-gray font-medium font-bold" text-anchor="middle">TAILWIND_CSS</text>
    </g>

    <g transform="translate(690, 0)">
      <g transform="translate(0, -12)" class="icon-path-gray">
        <path d="M-8,-8 L-8,2 C-8,6 -4,9 0,9 C4,9 8,6 8,2 L8,-8" />
        <path d="M-3,-8 L-3,2 C-3,4 -1,5 0,5 C1,5 3,4 3,2 L3,-8" />
      </g>
      <text y="20" class="text-gray font-medium font-bold" text-anchor="middle">UNREAL_ENGINE</text>
    </g>

    <g transform="translate(870, 0)">
      <g transform="translate(0, -12)" class="icon-path-gray">
        <circle cx="-2" cy="-2" r="5" />
        <circle cx="-2" cy="-2" r="1.5" fill="#6B7280"/>
        <path d="M3,-2 L10,-2 M-2,3 L-2,10 M-6,-6 L-10,-10" />
      </g>
      <text y="20" class="text-gray font-medium font-bold" text-anchor="middle">BLENDER</text>
    </g>

    <g transform="translate(1050, 0)">
      <g transform="translate(0, -12)" class="icon-path-gray">
        <circle cx="-3" cy="-7" r="3"/> <circle cx="3" cy="-7" r="3"/>
        <circle cx="-3" cy="-1" r="3"/> <circle cx="3" cy="-1" r="3"/>
        <path d="M-3,2 C-3,5 -3,8 0,8 C3,8 3,5 3,2" />
      </g>
      <text y="20" class="text-gray font-medium font-bold" text-anchor="middle">FIGMA</text>
    </g>
  </g>

  <text x="60" y="705" font-size="20" class="text-dark font-bold" letter-spacing="-0.5">SYS.SERVICES // 04</text>
  <line x1="60" y1="725" x2="1140" y2="725" stroke="#D1D5DB" stroke-width="1.5" stroke-dasharray="6 6"/>

  <rect x="60" y="760" width="240" height="280" class="card" />
  <rect x="90" y="790" width="50" height="50" class="icon-box" />
  <g transform="translate(115, 815)" class="icon-path">
    <rect x="-10" y="-10" width="20" height="20" rx="2" />
    <line x1="-10" y1="-3" x2="10" y2="-3" />
    <line x1="-2" y1="-3" x2="-2" y2="10" />
  </g>
  <text x="90" y="880" font-size="18" class="text-dark font-bold">BRAND &amp; UI/UX</text>
  <text x="90" y="910" font-size="14" class="text-gray">Designing interfaces</text>
  <text x="90" y="935" font-size="14" class="text-gray">that are intuitive,</text>
  <text x="90" y="960" font-size="14" class="text-gray">efficient &amp; scalable.</text>

  <rect x="340" y="760" width="240" height="280" class="card" />
  <rect x="370" y="790" width="50" height="50" class="icon-box" />
  <g transform="translate(395, 815)" class="icon-path">
    <rect x="-12" y="-10" width="24" height="20" rx="2" />
    <path d="M-8,-4 L-4,0 L-8,4" />
    <line x1="-2" y1="4" x2="6" y2="4" />
  </g>
  <text x="370" y="880" font-size="18" class="text-dark font-bold">FULL-STACK DEV</text>
  <text x="370" y="910" font-size="14" class="text-gray">Transforming ideas</text>
  <text x="370" y="935" font-size="14" class="text-gray">into web apps using</text>
  <text x="370" y="960" font-size="14" class="text-gray">React &amp; Laravel.</text>

  <rect x="620" y="760" width="240" height="280" class="card" />
  <rect x="650" y="790" width="50" height="50" class="icon-box" />
  <g transform="translate(675, 815)" class="icon-path">
    <polygon points="0,-12 10,-6 10,6 0,12 -10,6 -10,-6" />
    <line x1="-10" y1="-6" x2="0" y2="0" />
    <line x1="10" y1="-6" x2="0" y2="0" />
    <line x1="0" y1="12" x2="0" y2="0" />
  </g>
  <text x="650" y="880" font-size="18" class="text-dark font-bold">3D &amp; GAME ART</text>
  <text x="650" y="910" font-size="14" class="text-gray">Crafting visually</text>
  <text x="650" y="935" font-size="14" class="text-gray">stunning models in</text>
  <text x="650" y="960" font-size="14" class="text-gray">Blender &amp; Unreal.</text>

  <rect x="900" y="760" width="240" height="280" class="card" />
  <rect x="930" y="790" width="50" height="50" class="icon-box" />
  <g transform="translate(955, 815)" class="icon-path">
    <ellipse cx="0" cy="-6" rx="10" ry="4" />
    <path d="M-10,-6 L-10,0 C-10,2.2 0,4 0,4 C0,4 10,2.2 10,0 L10,-6" />
    <path d="M-10,0 L-10,6 C-10,8.2 0,10 0,10 C0,10 10,8.2 10,6 L10,0" />
  </g>
  <text x="930" y="880" font-size="18" class="text-dark font-bold">SYSTEM ARCH</text>
  <text x="930" y="910" font-size="14" class="text-gray">Bringing complex</text>
  <text x="930" y="935" font-size="14" class="text-gray">visions to life with</text>
  <text x="930" y="960" font-size="14" class="text-gray">secure databases.</text>

</svg>
